<?xml version="1.0" encoding="UTF-8" standalone="no"?>
<!DOCTYPE svg PUBLIC "-//W3C//DTD SVG 1.1//EN" "http://www.w3.org/Graphics/SVG/1.1/DTD/svg11.dtd">
<svg width="100%" height="100%" viewBox="0 0 581 581" version="1.1" xmlns="http://www.w3.org/2000/svg" xmlns:xlink="http://www.w3.org/1999/xlink" xml:space="preserve" xmlns:serif="http://www.serif.com/" style="fill-rule:evenodd;clip-rule:evenodd;stroke-linejoin:round;stroke-miterlimit:2;">
    <g transform="matrix(1,0,0,1,33,31)">
        <g>
            <path d="M90.101,440.793C84.643,442.353 78.925,443.132 72.947,443.132C63.851,443.132 56.184,441.313 49.946,437.675C43.709,434.036 38.771,429.488 35.132,424.03C31.493,418.572 28.894,412.529 27.335,405.902C25.776,399.274 24.996,392.842 24.996,386.604C24.996,378.287 26.1,369.711 28.31,360.874C30.519,352.037 32.923,343.266 35.522,334.559C38.121,325.852 40.525,317.406 42.734,309.219C44.943,301.032 46.048,293.17 46.048,285.633C46.048,282.514 45.788,279.395 45.268,276.276C44.748,273.158 43.709,270.364 42.149,267.895C40.59,265.425 38.511,263.411 35.912,261.852C33.313,260.292 29.934,259.513 25.776,259.513C22.397,259.513 18.368,259.903 13.69,260.682L13.69,238.851C18.368,239.63 22.397,240.02 25.776,240.02C29.934,240.02 33.313,239.24 35.912,237.681C38.511,236.122 40.59,234.107 42.149,231.638C43.709,229.169 44.748,226.375 45.268,223.257C45.788,220.138 46.048,217.019 46.048,213.9C46.048,206.623 44.943,198.826 42.734,190.509C40.525,182.192 38.121,173.681 35.522,164.974C32.923,156.267 30.519,147.496 28.31,138.659C26.1,129.822 24.996,121.246 24.996,112.929C24.996,106.691 25.776,100.259 27.335,93.631C28.894,87.004 31.493,80.961 35.132,75.503C38.771,70.045 43.709,65.497 49.946,61.858C56.184,58.22 63.851,56.4 72.947,56.4C78.925,56.4 84.643,57.18 90.101,58.74L90.101,77.063C88.022,76.803 86.007,76.478 84.058,76.088C82.109,75.698 80.225,75.503 78.405,75.503C72.428,75.503 67.425,76.478 63.396,78.427C59.368,80.376 56.184,83.105 53.845,86.614C51.506,90.123 49.816,94.216 48.777,98.894C47.737,103.572 47.217,108.64 47.217,114.098C47.217,123.455 48.322,132.811 50.531,142.168C52.74,151.524 55.144,160.815 57.743,170.042C60.342,179.268 62.746,188.3 64.956,197.137C67.165,205.973 68.269,214.42 68.269,222.477C68.269,227.415 67.684,232.158 66.515,236.706C65.345,241.255 63.331,245.608 60.472,249.766C63.331,253.925 65.345,258.278 66.515,262.826C67.684,267.375 68.269,272.118 68.269,277.056C68.269,285.113 67.165,293.56 64.956,302.396C62.746,311.233 60.342,320.264 57.743,329.491C55.144,338.717 52.74,348.009 50.531,357.365C48.322,366.722 47.217,376.078 47.217,385.435C47.217,390.892 47.737,395.961 48.777,400.639C49.816,405.317 51.506,409.41 53.845,412.919C56.184,416.428 59.368,419.157 63.396,421.106C67.425,423.055 72.428,424.03 78.405,424.03C80.225,424.03 82.109,423.835 84.058,423.445C86.007,423.055 88.022,422.73 90.101,422.47L90.101,440.793Z" style="fill-rule:nonzero;"/>
            <g id="_-todd-" serif:id="(todd)">
                <path d="M119.391,180.77L119.391,210.399L134.4,210.399L134.4,217.221L119.391,217.221L119.391,276.673C119.391,278.233 119.456,280.02 119.586,282.034C119.716,284.048 120.073,285.965 120.658,287.784C121.243,289.603 122.152,291.13 123.387,292.365C124.621,293.599 126.343,294.217 128.552,294.217C132.061,294.217 135.407,292.462 138.591,288.954C141.775,285.445 144.276,280.117 146.096,272.97L153.308,272.97C151.099,281.157 148.727,287.622 146.193,292.365C143.659,297.108 141.027,300.714 138.299,303.183C135.57,305.652 132.873,307.244 130.209,307.959C127.545,308.674 125.109,309.031 122.899,309.031C118.221,309.031 114.388,308.154 111.399,306.399C108.41,304.645 106.071,302.403 104.382,299.675C102.692,296.946 101.523,293.924 100.873,290.611C100.223,287.297 99.898,284.016 99.898,280.767L99.898,217.221L93.271,217.221L93.271,210.399L99.898,210.399L99.898,183.499L119.391,180.77Z" style="fill:rgb(212,65,0);fill-rule:nonzero;"/>
                <path d="M179.402,209.424C184.47,209.424 188.824,210.204 192.462,211.763C196.101,213.323 199.09,215.499 201.429,218.293C203.768,221.087 205.62,224.368 206.984,228.137C208.349,231.905 209.356,235.934 210.006,240.222L211.175,240.222C216.633,240.222 221.636,239.118 226.184,236.909C230.733,234.699 234.631,231.905 237.88,228.527L240.804,233.79C238.205,237.948 234.079,241.392 228.426,244.121C222.773,246.85 216.958,248.734 210.98,249.774L211.175,257.766C211.175,273.749 208.251,286.29 202.404,295.386C196.556,304.483 188.369,309.031 177.843,309.031C173.555,309.031 169.234,308.251 164.88,306.692C160.527,305.132 156.596,302.533 153.087,298.895C149.579,295.256 146.752,290.578 144.608,284.86C142.464,279.142 141.392,272.06 141.392,263.613C141.392,257.896 142.009,251.853 143.244,245.485C144.478,239.118 146.557,233.27 149.481,227.942C152.405,222.614 156.304,218.196 161.177,214.687C166.05,211.178 172.125,209.424 179.402,209.424ZM181.352,294.217C188.239,294.217 193.307,290.805 196.556,283.983C199.805,277.161 201.429,267.512 201.429,255.037L201.429,252.698C201.429,251.918 201.364,251.138 201.234,250.358C197.465,250.099 194.769,249.254 193.145,247.824C191.52,246.395 190.708,243.991 190.708,240.612C190.708,237.623 191.358,235.512 192.657,234.277C193.957,233.043 195.906,232.36 198.505,232.23C196.946,227.682 194.964,224.531 192.56,222.776C190.156,221.022 187.459,220.145 184.47,220.145C180.442,220.145 177.031,221.477 174.237,224.141C171.443,226.805 169.169,230.216 167.414,234.375C165.66,238.533 164.393,243.114 163.613,248.117C162.834,253.12 162.444,258.025 162.444,262.834C162.444,269.201 163.029,274.399 164.198,278.428C165.368,282.456 166.862,285.64 168.681,287.979C170.501,290.318 172.515,291.942 174.724,292.852C176.933,293.762 179.142,294.217 181.352,294.217Z" style="fill:rgb(212,65,0);fill-rule:nonzero;"/>
                <path d="M295.358,171.414L295.358,276.673C295.358,277.973 295.423,279.597 295.553,281.546C295.682,283.496 296.04,285.412 296.625,287.297C297.209,289.181 298.087,290.805 299.256,292.17C300.426,293.534 302.05,294.217 304.129,294.217C310.497,294.217 315.175,287.134 318.164,272.97L325.376,272.97C323.947,281.157 322.127,287.622 319.918,292.365C317.709,297.108 315.37,300.714 312.901,303.183C310.432,305.652 307.898,307.244 305.299,307.959C302.7,308.674 300.361,309.031 298.281,309.031C295.293,309.031 292.726,308.511 290.582,307.472C288.438,306.432 286.618,305.067 285.124,303.378C283.63,301.689 282.428,299.74 281.518,297.53C280.608,295.321 279.894,292.982 279.374,290.513C277.424,295.581 274.273,299.934 269.92,303.573C265.566,307.212 260.271,309.031 254.033,309.031C250.135,309.031 246.204,308.251 242.24,306.692C238.277,305.132 234.703,302.566 231.52,298.992C228.336,295.419 225.737,290.805 223.722,285.153C221.708,279.5 220.701,272.58 220.701,264.393C220.701,258.415 221.383,252.178 222.748,245.68C224.112,239.183 226.289,233.27 229.278,227.942C232.267,222.614 236.1,218.196 240.778,214.687C245.457,211.178 251.11,209.424 257.737,209.424C259.296,209.424 260.953,209.587 262.708,209.911C264.462,210.236 266.151,210.789 267.776,211.568C269.4,212.348 270.927,213.42 272.356,214.785C273.786,216.149 274.955,217.806 275.865,219.755L275.865,174.143L295.358,171.414ZM258.907,294.217C260.856,294.217 262.838,293.664 264.852,292.56C266.866,291.455 268.685,289.961 270.31,288.076C271.934,286.192 273.266,283.951 274.306,281.352C275.345,278.753 275.865,275.959 275.865,272.97L275.865,228.527C274.955,226.448 273.558,224.531 271.674,222.776C269.79,221.022 267.353,220.145 264.364,220.145C260.206,220.145 256.632,221.542 253.644,224.336C250.655,227.13 248.251,230.638 246.431,234.862C244.612,239.085 243.28,243.698 242.435,248.702C241.591,253.705 241.168,258.48 241.168,263.029C241.168,274.204 242.695,282.196 245.749,287.004C248.803,291.813 253.189,294.217 258.907,294.217Z" style="fill:rgb(212,65,0);fill-rule:nonzero;"/>
                <path d="M387.922,171.414L387.922,276.673C387.922,277.973 387.987,279.597 388.117,281.546C388.247,283.496 388.604,285.412 389.189,287.297C389.774,289.181 390.651,290.805 391.82,292.17C392.99,293.534 394.614,294.217 396.693,294.217C403.061,294.217 407.739,287.134 410.728,272.97L417.94,272.97C416.511,281.157 414.691,287.622 412.482,292.365C410.273,297.108 407.934,300.714 405.465,303.183C402.996,305.652 400.462,307.244 397.863,307.959C395.264,308.674 392.925,309.031 390.846,309.031C387.857,309.031 385.29,308.511 383.146,307.472C381.002,306.432 379.183,305.067 377.688,303.378C376.194,301.689 374.992,299.74 374.082,297.53C373.172,295.321 372.458,292.982 371.938,290.513C369.989,295.581 366.837,299.934 362.484,303.573C358.131,307.212 352.835,309.031 346.598,309.031C342.699,309.031 338.768,308.251 334.805,306.692C330.841,305.132 327.267,302.566 324.084,298.992C320.9,295.419 318.301,290.805 316.287,285.153C314.272,279.5 313.265,272.58 313.265,264.393C313.265,258.415 313.948,252.178 315.312,245.68C316.677,239.183 318.853,233.27 321.842,227.942C324.831,222.614 328.664,218.196 333.343,214.687C338.021,211.178 343.674,209.424 350.301,209.424C351.861,209.424 353.517,209.587 355.272,209.911C357.026,210.236 358.715,210.789 360.34,211.568C361.964,212.348 363.491,213.42 364.921,214.785C366.35,216.149 367.52,217.806 368.429,219.755L368.429,174.143L387.922,171.414ZM351.471,294.217C353.42,294.217 355.402,293.664 357.416,292.56C359.43,291.455 361.249,289.961 362.874,288.076C364.498,286.192 365.83,283.951 366.87,281.352C367.909,278.753 368.429,275.959 368.429,272.97L368.429,228.527C367.52,226.448 366.123,224.531 364.238,222.776C362.354,221.022 359.917,220.145 356.929,220.145C352.77,220.145 349.197,221.542 346.208,224.336C343.219,227.13 340.815,230.638 338.995,234.862C337.176,239.085 335.844,243.698 334.999,248.702C334.155,253.705 333.732,258.48 333.732,263.029C333.732,274.204 335.259,282.196 338.313,287.004C341.367,291.813 345.753,294.217 351.471,294.217Z" style="fill:rgb(212,65,0);fill-rule:nonzero;"/>
            </g>
            <path d="M417.101,426.876C419.18,427.136 421.129,427.461 422.949,427.851C424.768,428.241 426.587,428.435 428.407,428.435C440.362,428.435 448.549,424.732 452.967,417.325C457.386,409.918 459.595,400.756 459.595,389.84C459.595,380.484 458.49,371.127 456.281,361.771C454.072,352.415 451.668,343.123 449.069,333.897C446.47,324.67 444.066,315.639 441.857,306.802C439.647,297.965 438.543,289.519 438.543,281.462C438.543,276.524 439.128,271.78 440.297,267.232C441.467,262.684 443.481,258.331 446.34,254.172C443.481,250.014 441.467,245.66 440.297,241.112C439.128,236.564 438.543,231.821 438.543,226.883C438.543,218.826 439.647,210.379 441.857,201.542C444.066,192.706 446.47,183.674 449.069,174.448C451.668,165.221 454.072,155.93 456.281,146.573C458.49,137.217 459.595,127.861 459.595,118.504C459.595,107.588 457.386,98.427 452.967,91.02C448.549,83.612 440.362,79.909 428.407,79.909C426.587,79.909 424.703,80.104 422.754,80.494C420.805,80.883 418.79,81.208 416.711,81.468L416.711,63.145C422.169,61.586 427.887,60.806 433.865,60.806C442.961,60.806 450.563,62.625 456.671,66.264C462.779,69.903 467.717,74.451 471.485,79.909C475.254,85.367 477.918,91.409 479.477,98.037C481.037,104.664 481.816,111.097 481.816,117.335C481.816,125.651 480.712,134.228 478.503,143.065C476.293,151.901 473.889,160.673 471.29,169.38C468.691,178.086 466.287,186.598 464.078,194.915C461.869,203.232 460.764,211.029 460.764,218.306C460.764,221.425 461.024,224.544 461.544,227.662C462.064,230.781 463.103,233.575 464.663,236.044C466.222,238.513 468.301,240.527 470.9,242.087C473.499,243.646 476.878,244.426 481.037,244.426C484.415,244.426 488.444,244.036 493.122,243.256L493.122,265.088C488.444,264.308 484.415,263.918 481.037,263.918C476.878,263.918 473.499,264.698 470.9,266.258C468.301,267.817 466.222,269.831 464.663,272.3C463.103,274.769 462.064,277.563 461.544,280.682C461.024,283.801 460.764,286.92 460.764,290.038C460.764,297.576 461.869,305.438 464.078,313.624C466.287,321.811 468.691,330.258 471.29,338.965C473.889,347.671 476.293,356.443 478.503,365.28C480.712,374.116 481.816,382.693 481.816,391.01C481.816,397.247 481.037,403.68 479.477,410.307C477.918,416.935 475.254,422.978 471.485,428.435C467.717,433.893 462.779,438.442 456.671,442.08C450.563,445.719 442.961,447.538 433.865,447.538C428.147,447.538 422.559,446.758 417.101,445.199L417.101,426.876Z" style="fill-rule:nonzero;"/>
        </g>
    </g>
</svg>
