<?xml version="1.0" encoding="UTF-8" standalone="no"?>
<!DOCTYPE svg PUBLIC "-//W3C//DTD SVG 1.1//EN" "http://www.w3.org/Graphics/SVG/1.1/DTD/svg11.dtd">
<svg width="100%" height="100%" viewBox="0 0 1533 1533" version="1.1" xmlns="http://www.w3.org/2000/svg" xmlns:xlink="http://www.w3.org/1999/xlink" xml:space="preserve" xmlns:serif="http://www.serif.com/" style="fill-rule:evenodd;clip-rule:evenodd;stroke-linejoin:round;stroke-miterlimit:2;">
    <g>
        <g transform="matrix(1,0,0,1,-146,238)">
            <g>
                <g transform="matrix(0.884352,0.523332,-0.62643,1.05857,332.387,-466.041)">
                    <path d="M1521,65.406C1521,51.936 1507.91,41 1491.79,41L849.214,41C833.09,41 820,51.936 820,65.406L820,605.731C820,619.201 833.09,630.137 849.214,630.137L1491.79,630.137C1507.91,630.137 1521,619.201 1521,605.731L1521,65.406Z" style="fill:rgb(215,221,224);"/>
                </g>
                <g transform="matrix(0.917205,0.548789,-0.441377,0.737685,472.337,-458.365)">
                    <path d="M1347,145.523C1347,134.196 1339.6,125 1330.49,125L690.428,125C681.319,125 673.923,134.196 673.923,145.523L673.923,347.477C673.923,358.804 681.319,368 690.428,368L1330.49,368C1339.6,368 1347,358.804 1347,347.477L1347,145.523Z" style="fill:rgb(167,190,197);"/>
                </g>
                <g transform="matrix(1,0,0,1,0,26)">
                    <ellipse cx="1023" cy="420.002" rx="145" ry="141.998" style="fill:rgb(69,99,107);"/>
                </g>
                <path d="M890,475.5C890,475.5 904.734,460.977 922,462C939.266,463.023 942.781,465.148 955,465C967.219,464.852 981.967,462.893 982,463C982.033,463.107 980,437 980,437L985,416L987,389L999,368C999,368 1006.47,345.452 1015,345C1023.53,344.548 1033.24,343 1033.24,343L1063,344C1063,344 1085.78,355.408 1087.5,368C1089.22,380.592 1113.42,396.361 1107,408C1101.26,418.406 1102,420 1102,420L1092.5,429L1087.5,444C1087.5,444 1068.07,461.404 1059,466C1049.93,470.596 1041.94,488.925 1033.24,488.5C1018.99,487.805 1033.24,501.743 1033.24,501.743L1043,520.586L1057,551.766L1055,570L1050,585L1033.24,599.232C1033.24,599.232 1004.63,588.155 980,580C945.717,568.649 875.543,500.366 890,475.5Z" style="fill:rgb(206,214,217);"/>
                <g transform="matrix(0.861895,0.507086,-0.507086,0.861895,289.813,-531.011)">
                    <g transform="matrix(152.169,0,0,152.169,1157.31,251)">
                        <path d="M0.588,-0.251L0.683,-0.227C0.663,-0.149 0.627,-0.09 0.575,-0.049C0.524,-0.008 0.461,0.012 0.386,0.012C0.309,0.012 0.246,-0.003 0.198,-0.035C0.15,-0.066 0.113,-0.112 0.088,-0.171C0.062,-0.231 0.05,-0.295 0.05,-0.363C0.05,-0.438 0.064,-0.503 0.093,-0.558C0.121,-0.614 0.162,-0.656 0.214,-0.685C0.267,-0.714 0.325,-0.728 0.388,-0.728C0.459,-0.728 0.52,-0.71 0.568,-0.673C0.617,-0.637 0.651,-0.586 0.67,-0.52L0.577,-0.498C0.561,-0.55 0.536,-0.588 0.505,-0.611C0.473,-0.635 0.434,-0.647 0.386,-0.647C0.331,-0.647 0.285,-0.634 0.248,-0.607C0.211,-0.581 0.185,-0.546 0.17,-0.501C0.155,-0.457 0.147,-0.411 0.147,-0.364C0.147,-0.303 0.156,-0.25 0.174,-0.204C0.192,-0.159 0.219,-0.125 0.257,-0.103C0.294,-0.08 0.335,-0.069 0.378,-0.069C0.431,-0.069 0.476,-0.084 0.513,-0.115C0.55,-0.145 0.575,-0.191 0.588,-0.251Z" style="fill:rgb(69,99,107);fill-rule:nonzero;stroke:rgb(69,99,107);stroke-width:0.01px;"/>
                    </g>
                    <g transform="matrix(152.169,0,0,152.169,1267.2,251)">
                        <path d="M0.282,-0L0.004,-0.716L0.107,-0.716L0.293,-0.196C0.308,-0.154 0.32,-0.115 0.331,-0.079C0.342,-0.118 0.354,-0.157 0.369,-0.196L0.563,-0.716L0.659,-0.716L0.379,-0L0.282,-0Z" style="fill:rgb(69,99,107);fill-rule:nonzero;stroke:rgb(69,99,107);stroke-width:0.01px;"/>
                    </g>
                </g>
                <g transform="matrix(0.848366,0.52941,-0.52941,0.848366,222.182,-541.336)">
                    <rect x="1023" y="85" width="145" height="23" style="fill:rgb(69,99,107);"/>
                </g>
                <g transform="matrix(0.848366,0.52941,-0.52941,0.848366,186.182,-480.972)">
                    <rect x="1023" y="85" width="145" height="23" style="fill:rgb(69,99,107);"/>
                </g>
                <g transform="matrix(0.848366,0.52941,-0.52941,0.848366,204.182,-511.11)">
                    <rect x="1023" y="85" width="145" height="23" style="fill:rgb(69,99,107);"/>
                </g>
                <g transform="matrix(1.50276,0.937778,-0.86454,1.3854,-210.923,-609.661)">
                    <rect x="1023" y="85" width="145" height="23" style="fill:rgb(69,99,107);"/>
                </g>
                <g transform="matrix(1.50276,0.937778,-0.86454,1.3854,-269.545,-510.981)">
                    <rect x="1023" y="85" width="145" height="23" style="fill:rgb(69,99,107);"/>
                </g>
                <g transform="matrix(1.50276,0.937778,-0.86454,1.3854,-301.545,-456.981)">
                    <rect x="1023" y="85" width="145" height="23" style="fill:rgb(69,99,107);"/>
                </g>
                <g transform="matrix(1.50276,0.937778,-0.86454,1.3854,-335.545,-395.89)">
                    <rect x="1023" y="85" width="145" height="23" style="fill:rgb(69,99,107);"/>
                </g>
                <g transform="matrix(1.50276,0.937778,-0.86454,1.3854,-240.231,-560.248)">
                    <rect x="1023" y="85" width="145" height="23" style="fill:rgb(69,99,107);"/>
                </g>
                <g transform="matrix(1,0,0,1,-1792,-1024)">
                    <rect x="1938" y="786" width="1533" height="1533" style="fill:white;"/>
                </g>
            </g>
            <g>
                <g transform="matrix(0.884352,0.523332,-0.62643,1.05857,332.387,-466.041)">
                    <path d="M1521,65.406C1521,51.936 1507.91,41 1491.79,41L849.214,41C833.09,41 820,51.936 820,65.406L820,605.731C820,619.201 833.09,630.137 849.214,630.137L1491.79,630.137C1507.91,630.137 1521,619.201 1521,605.731L1521,65.406Z" style="fill:rgb(215,221,224);"/>
                </g>
                <g transform="matrix(0.917205,0.548789,-0.441377,0.737685,472.337,-458.365)">
                    <path d="M1347,145.523C1347,134.196 1339.6,125 1330.49,125L690.428,125C681.319,125 673.923,134.196 673.923,145.523L673.923,347.477C673.923,358.804 681.319,368 690.428,368L1330.49,368C1339.6,368 1347,358.804 1347,347.477L1347,145.523Z" style="fill:rgb(167,190,197);"/>
                </g>
                <g transform="matrix(1,0,0,1,0,26)">
                    <ellipse cx="1023" cy="420.002" rx="145" ry="141.998" style="fill:rgb(69,99,107);"/>
                </g>
                <path d="M890,475.5C890,475.5 904.734,460.977 922,462C939.266,463.023 942.781,465.148 955,465C967.219,464.852 981.967,462.893 982,463C982.033,463.107 980,437 980,437L985,416L987,389L999,368C999,368 1006.47,345.452 1015,345C1023.53,344.548 1033.24,343 1033.24,343L1063,344C1063,344 1085.78,355.408 1087.5,368C1089.22,380.592 1113.42,396.361 1107,408C1101.26,418.406 1102,420 1102,420L1092.5,429L1087.5,444C1087.5,444 1068.07,461.404 1059,466C1049.93,470.596 1041.94,488.925 1033.24,488.5C1018.99,487.805 1033.24,501.743 1033.24,501.743L1043,520.586L1057,551.766L1055,570L1050,585L1033.24,599.232C1033.24,599.232 1004.63,588.155 980,580C945.717,568.649 875.543,500.366 890,475.5Z" style="fill:rgb(206,214,217);"/>
                <g transform="matrix(0.861895,0.507086,-0.507086,0.861895,289.813,-531.011)">
                    <g transform="matrix(152.169,0,0,152.169,1157.31,251)">
                        <path d="M0.588,-0.251L0.683,-0.227C0.663,-0.149 0.627,-0.09 0.575,-0.049C0.524,-0.008 0.461,0.012 0.386,0.012C0.309,0.012 0.246,-0.003 0.198,-0.035C0.15,-0.066 0.113,-0.112 0.088,-0.171C0.062,-0.231 0.05,-0.295 0.05,-0.363C0.05,-0.438 0.064,-0.503 0.093,-0.558C0.121,-0.614 0.162,-0.656 0.214,-0.685C0.267,-0.714 0.325,-0.728 0.388,-0.728C0.459,-0.728 0.52,-0.71 0.568,-0.673C0.617,-0.637 0.651,-0.586 0.67,-0.52L0.577,-0.498C0.561,-0.55 0.536,-0.588 0.505,-0.611C0.473,-0.635 0.434,-0.647 0.386,-0.647C0.331,-0.647 0.285,-0.634 0.248,-0.607C0.211,-0.581 0.185,-0.546 0.17,-0.501C0.155,-0.457 0.147,-0.411 0.147,-0.364C0.147,-0.303 0.156,-0.25 0.174,-0.204C0.192,-0.159 0.219,-0.125 0.257,-0.103C0.294,-0.08 0.335,-0.069 0.378,-0.069C0.431,-0.069 0.476,-0.084 0.513,-0.115C0.55,-0.145 0.575,-0.191 0.588,-0.251Z" style="fill:rgb(69,99,107);fill-rule:nonzero;stroke:rgb(69,99,107);stroke-width:0.01px;"/>
                    </g>
                    <g transform="matrix(152.169,0,0,152.169,1267.2,251)">
                        <path d="M0.282,-0L0.004,-0.716L0.107,-0.716L0.293,-0.196C0.308,-0.154 0.32,-0.115 0.331,-0.079C0.342,-0.118 0.354,-0.157 0.369,-0.196L0.563,-0.716L0.659,-0.716L0.379,-0L0.282,-0Z" style="fill:rgb(69,99,107);fill-rule:nonzero;stroke:rgb(69,99,107);stroke-width:0.01px;"/>
                    </g>
                </g>
                <g transform="matrix(0.848366,0.52941,-0.52941,0.848366,222.182,-541.336)">
                    <rect x="1023" y="85" width="145" height="23" style="fill:rgb(69,99,107);"/>
                </g>
                <g transform="matrix(0.848366,0.52941,-0.52941,0.848366,186.182,-480.972)">
                    <rect x="1023" y="85" width="145" height="23" style="fill:rgb(69,99,107);"/>
                </g>
                <g transform="matrix(0.848366,0.52941,-0.52941,0.848366,204.182,-511.11)">
                    <rect x="1023" y="85" width="145" height="23" style="fill:rgb(69,99,107);"/>
                </g>
                <g transform="matrix(1.50276,0.937778,-0.86454,1.3854,-210.923,-609.661)">
                    <rect x="1023" y="85" width="145" height="23" style="fill:rgb(69,99,107);"/>
                </g>
                <g transform="matrix(1.50276,0.937778,-0.86454,1.3854,-269.545,-510.981)">
                    <rect x="1023" y="85" width="145" height="23" style="fill:rgb(69,99,107);"/>
                </g>
                <g transform="matrix(1.50276,0.937778,-0.86454,1.3854,-301.545,-456.981)">
                    <rect x="1023" y="85" width="145" height="23" style="fill:rgb(69,99,107);"/>
                </g>
                <g transform="matrix(1.50276,0.937778,-0.86454,1.3854,-335.545,-395.89)">
                    <rect x="1023" y="85" width="145" height="23" style="fill:rgb(69,99,107);"/>
                </g>
                <g transform="matrix(1.50276,0.937778,-0.86454,1.3854,-240.231,-560.248)">
                    <rect x="1023" y="85" width="145" height="23" style="fill:rgb(69,99,107);"/>
                </g>
                <g transform="matrix(1,0,0,1,-1792,-1024)">
                    <rect x="1938" y="786" width="1533" height="1533" style="fill:white;"/>
                </g>
            </g>
        </g>
        <g transform="matrix(0.756518,0,0,0.715687,-132,372.575)">
            <g transform="matrix(1.29322,0,0,1.367,0,0)">
                <g transform="matrix(421.08,0,0,421.08,254.535,282.966)">
                    <path d="M0.734,-0L0.512,-0L0.604,-0.432L0.367,-0L0.231,-0L0.186,-0.447L0.09,-0L0,-0L0.135,-0.635L0.39,-0.635L0.421,-0.277L0.613,-0.635L0.87,-0.635L0.734,-0Z" style="fill-rule:nonzero;"/>
                </g>
                <g transform="matrix(421.08,0,0,421.08,609.927,282.966)">
                    <path d="M0.251,-0.43L0.281,-0.136L0.439,-0.43L0.545,-0.43L0.304,-0C0.28,0.042 0.256,0.074 0.231,0.097C0.206,0.12 0.18,0.136 0.151,0.147C0.122,0.158 0.09,0.164 0.055,0.166C0.02,0.167 -0.02,0.168 -0.065,0.168L-0.05,0.099C-0.028,0.099 -0.008,0.099 0.012,0.098C0.031,0.097 0.046,0.095 0.057,0.092C0.072,0.088 0.083,0.081 0.09,0.071C0.097,0.06 0.1,0.045 0.1,0.025C0.1,0.012 0.099,-0.004 0.097,-0.021C0.094,-0.038 0.092,-0.057 0.089,-0.076L0.04,-0.43L0.251,-0.43Z" style="fill-rule:nonzero;"/>
                </g>
            </g>
            <g transform="matrix(1.29322,0,0,1.367,0,0)">
                <g transform="matrix(421.08,0,0,421.08,254.535,282.966)">
                    <path d="M0.734,-0L0.512,-0L0.604,-0.432L0.367,-0L0.231,-0L0.186,-0.447L0.09,-0L0,-0L0.135,-0.635L0.39,-0.635L0.421,-0.277L0.613,-0.635L0.87,-0.635L0.734,-0Z" style="fill-rule:nonzero;"/>
                </g>
                <g transform="matrix(421.08,0,0,421.08,609.927,282.966)">
                    <path d="M0.251,-0.43L0.281,-0.136L0.439,-0.43L0.545,-0.43L0.304,-0C0.28,0.042 0.256,0.074 0.231,0.097C0.206,0.12 0.18,0.136 0.151,0.147C0.122,0.158 0.09,0.164 0.055,0.166C0.02,0.167 -0.02,0.168 -0.065,0.168L-0.05,0.099C-0.028,0.099 -0.008,0.099 0.012,0.098C0.031,0.097 0.046,0.095 0.057,0.092C0.072,0.088 0.083,0.081 0.09,0.071C0.097,0.06 0.1,0.045 0.1,0.025C0.1,0.012 0.099,-0.004 0.097,-0.021C0.094,-0.038 0.092,-0.057 0.089,-0.076L0.04,-0.43L0.251,-0.43Z" style="fill-rule:nonzero;"/>
                </g>
            </g>
        </g>
        <g transform="matrix(1.141,0,0,0.641311,-102.58,847.137)">
            <g transform="matrix(0.740305,0,0,1.31713,0,0)">
                <g transform="matrix(421.08,0,0,421.08,176.96,282.966)">
                    <path d="M0.623,-0.484C0.623,-0.445 0.612,-0.408 0.59,-0.375C0.568,-0.342 0.532,-0.316 0.481,-0.299L0.597,-0L0.374,-0L0.286,-0.277L0.275,-0.277L0.216,-0L0,-0L0.135,-0.635L0.398,-0.635C0.429,-0.635 0.458,-0.633 0.485,-0.63C0.512,-0.626 0.536,-0.619 0.557,-0.608C0.577,-0.596 0.593,-0.581 0.605,-0.562C0.617,-0.542 0.623,-0.516 0.623,-0.484ZM0.335,-0.341C0.352,-0.341 0.367,-0.347 0.38,-0.359C0.392,-0.37 0.402,-0.384 0.41,-0.401C0.417,-0.418 0.423,-0.436 0.426,-0.455C0.429,-0.474 0.431,-0.49 0.431,-0.504C0.431,-0.521 0.428,-0.536 0.422,-0.549C0.416,-0.561 0.403,-0.567 0.383,-0.567L0.338,-0.567L0.288,-0.341L0.335,-0.341Z" style="fill-rule:nonzero;"/>
                </g>
                <g transform="matrix(421.08,0,0,421.08,443.504,282.966)">
                    <path d="M0.135,-0.635L0.556,-0.635L0.54,-0.559L0.336,-0.559L0.294,-0.366L0.465,-0.366L0.449,-0.291L0.278,-0.291L0.232,-0.077L0.436,-0.077L0.421,-0L0,-0L0.135,-0.635Z" style="fill-rule:nonzero;"/>
                </g>
                <g transform="matrix(421.08,0,0,421.08,653.202,282.966)">
                    <path d="M0.394,-0.451C0.396,-0.461 0.397,-0.475 0.397,-0.492C0.397,-0.502 0.396,-0.512 0.395,-0.522C0.394,-0.531 0.391,-0.54 0.388,-0.548C0.385,-0.555 0.38,-0.561 0.373,-0.566C0.366,-0.57 0.358,-0.572 0.347,-0.572C0.335,-0.572 0.324,-0.569 0.314,-0.564C0.304,-0.559 0.295,-0.552 0.288,-0.544C0.28,-0.535 0.274,-0.526 0.27,-0.515C0.265,-0.503 0.263,-0.492 0.263,-0.48C0.263,-0.463 0.268,-0.449 0.277,-0.44C0.286,-0.431 0.297,-0.423 0.312,-0.417C0.327,-0.411 0.343,-0.406 0.362,-0.402C0.381,-0.398 0.4,-0.393 0.42,-0.388C0.437,-0.383 0.453,-0.377 0.47,-0.37C0.487,-0.363 0.501,-0.353 0.515,-0.341C0.528,-0.328 0.538,-0.312 0.546,-0.293C0.554,-0.273 0.558,-0.248 0.558,-0.219C0.558,-0.177 0.55,-0.142 0.533,-0.113C0.516,-0.084 0.493,-0.061 0.464,-0.043C0.435,-0.025 0.4,-0.012 0.36,-0.004C0.319,0.004 0.275,0.008 0.228,0.008C0.18,0.008 0.141,0.005 0.111,-0.002C0.08,-0.008 0.056,-0.015 0.039,-0.022C0.018,-0.031 0.003,-0.041 -0.007,-0.052L0.027,-0.189L0.203,-0.189C0.202,-0.183 0.202,-0.175 0.201,-0.165C0.2,-0.154 0.2,-0.146 0.2,-0.14C0.2,-0.132 0.201,-0.124 0.203,-0.115C0.205,-0.106 0.208,-0.098 0.213,-0.091C0.217,-0.084 0.223,-0.078 0.231,-0.073C0.239,-0.068 0.249,-0.066 0.261,-0.066C0.274,-0.066 0.286,-0.069 0.297,-0.075C0.307,-0.081 0.316,-0.089 0.323,-0.098C0.33,-0.107 0.335,-0.117 0.339,-0.128C0.342,-0.139 0.344,-0.149 0.344,-0.16C0.344,-0.175 0.341,-0.187 0.334,-0.197C0.327,-0.207 0.317,-0.216 0.305,-0.223C0.293,-0.23 0.279,-0.236 0.264,-0.241C0.248,-0.245 0.232,-0.251 0.215,-0.256C0.199,-0.261 0.182,-0.266 0.165,-0.273C0.147,-0.28 0.131,-0.289 0.116,-0.301C0.101,-0.313 0.089,-0.328 0.08,-0.347C0.07,-0.365 0.065,-0.388 0.065,-0.417C0.065,-0.46 0.076,-0.496 0.098,-0.525C0.119,-0.554 0.147,-0.577 0.18,-0.595C0.213,-0.613 0.249,-0.626 0.288,-0.634C0.327,-0.641 0.365,-0.645 0.4,-0.645C0.447,-0.645 0.487,-0.64 0.521,-0.629C0.554,-0.618 0.58,-0.605 0.597,-0.59L0.56,-0.451L0.394,-0.451Z" style="fill-rule:nonzero;"/>
                </g>
                <g transform="matrix(421.08,0,0,421.08,900.376,282.966)">
                    <path d="M0.267,-0.227C0.264,-0.212 0.261,-0.2 0.259,-0.189C0.257,-0.178 0.256,-0.168 0.256,-0.159C0.256,-0.136 0.264,-0.117 0.281,-0.103C0.297,-0.089 0.321,-0.082 0.353,-0.082C0.376,-0.082 0.396,-0.086 0.411,-0.094C0.426,-0.102 0.438,-0.113 0.448,-0.126C0.457,-0.139 0.465,-0.155 0.471,-0.172C0.476,-0.189 0.481,-0.208 0.485,-0.227L0.57,-0.635L0.661,-0.635L0.574,-0.225C0.567,-0.193 0.558,-0.163 0.545,-0.135C0.532,-0.107 0.514,-0.082 0.491,-0.061C0.467,-0.04 0.436,-0.023 0.399,-0.011C0.362,0.002 0.315,0.008 0.26,0.008C0.183,0.008 0.127,-0.005 0.09,-0.03C0.053,-0.055 0.035,-0.093 0.035,-0.145C0.035,-0.168 0.038,-0.198 0.044,-0.234C0.05,-0.27 0.058,-0.309 0.067,-0.351L0.128,-0.635L0.355,-0.635L0.267,-0.227Z" style="fill-rule:nonzero;"/>
                </g>
                <g transform="matrix(421.08,0,0,421.08,1165.66,282.966)">
                    <path d="M0.734,-0L0.512,-0L0.604,-0.432L0.367,-0L0.231,-0L0.186,-0.447L0.09,-0L0,-0L0.135,-0.635L0.39,-0.635L0.421,-0.277L0.613,-0.635L0.87,-0.635L0.734,-0Z" style="fill-rule:nonzero;"/>
                </g>
                <g transform="matrix(421.08,0,0,421.08,1521.05,282.966)">
                    <path d="M0.135,-0.635L0.556,-0.635L0.54,-0.559L0.336,-0.559L0.294,-0.366L0.465,-0.366L0.449,-0.291L0.278,-0.291L0.232,-0.077L0.436,-0.077L0.421,-0L0,-0L0.135,-0.635Z" style="fill-rule:nonzero;"/>
                </g>
            </g>
            <g transform="matrix(0.740305,0,0,1.31713,0,0)">
                <g transform="matrix(421.08,0,0,421.08,176.96,282.966)">
                    <path d="M0.623,-0.484C0.623,-0.445 0.612,-0.408 0.59,-0.375C0.568,-0.342 0.532,-0.316 0.481,-0.299L0.597,-0L0.374,-0L0.286,-0.277L0.275,-0.277L0.216,-0L0,-0L0.135,-0.635L0.398,-0.635C0.429,-0.635 0.458,-0.633 0.485,-0.63C0.512,-0.626 0.536,-0.619 0.557,-0.608C0.577,-0.596 0.593,-0.581 0.605,-0.562C0.617,-0.542 0.623,-0.516 0.623,-0.484ZM0.335,-0.341C0.352,-0.341 0.367,-0.347 0.38,-0.359C0.392,-0.37 0.402,-0.384 0.41,-0.401C0.417,-0.418 0.423,-0.436 0.426,-0.455C0.429,-0.474 0.431,-0.49 0.431,-0.504C0.431,-0.521 0.428,-0.536 0.422,-0.549C0.416,-0.561 0.403,-0.567 0.383,-0.567L0.338,-0.567L0.288,-0.341L0.335,-0.341Z" style="fill-rule:nonzero;"/>
                </g>
                <g transform="matrix(421.08,0,0,421.08,443.504,282.966)">
                    <path d="M0.135,-0.635L0.556,-0.635L0.54,-0.559L0.336,-0.559L0.294,-0.366L0.465,-0.366L0.449,-0.291L0.278,-0.291L0.232,-0.077L0.436,-0.077L0.421,-0L0,-0L0.135,-0.635Z" style="fill-rule:nonzero;"/>
                </g>
                <g transform="matrix(421.08,0,0,421.08,653.202,282.966)">
                    <path d="M0.394,-0.451C0.396,-0.461 0.397,-0.475 0.397,-0.492C0.397,-0.502 0.396,-0.512 0.395,-0.522C0.394,-0.531 0.391,-0.54 0.388,-0.548C0.385,-0.555 0.38,-0.561 0.373,-0.566C0.366,-0.57 0.358,-0.572 0.347,-0.572C0.335,-0.572 0.324,-0.569 0.314,-0.564C0.304,-0.559 0.295,-0.552 0.288,-0.544C0.28,-0.535 0.274,-0.526 0.27,-0.515C0.265,-0.503 0.263,-0.492 0.263,-0.48C0.263,-0.463 0.268,-0.449 0.277,-0.44C0.286,-0.431 0.297,-0.423 0.312,-0.417C0.327,-0.411 0.343,-0.406 0.362,-0.402C0.381,-0.398 0.4,-0.393 0.42,-0.388C0.437,-0.383 0.453,-0.377 0.47,-0.37C0.487,-0.363 0.501,-0.353 0.515,-0.341C0.528,-0.328 0.538,-0.312 0.546,-0.293C0.554,-0.273 0.558,-0.248 0.558,-0.219C0.558,-0.177 0.55,-0.142 0.533,-0.113C0.516,-0.084 0.493,-0.061 0.464,-0.043C0.435,-0.025 0.4,-0.012 0.36,-0.004C0.319,0.004 0.275,0.008 0.228,0.008C0.18,0.008 0.141,0.005 0.111,-0.002C0.08,-0.008 0.056,-0.015 0.039,-0.022C0.018,-0.031 0.003,-0.041 -0.007,-0.052L0.027,-0.189L0.203,-0.189C0.202,-0.183 0.202,-0.175 0.201,-0.165C0.2,-0.154 0.2,-0.146 0.2,-0.14C0.2,-0.132 0.201,-0.124 0.203,-0.115C0.205,-0.106 0.208,-0.098 0.213,-0.091C0.217,-0.084 0.223,-0.078 0.231,-0.073C0.239,-0.068 0.249,-0.066 0.261,-0.066C0.274,-0.066 0.286,-0.069 0.297,-0.075C0.307,-0.081 0.316,-0.089 0.323,-0.098C0.33,-0.107 0.335,-0.117 0.339,-0.128C0.342,-0.139 0.344,-0.149 0.344,-0.16C0.344,-0.175 0.341,-0.187 0.334,-0.197C0.327,-0.207 0.317,-0.216 0.305,-0.223C0.293,-0.23 0.279,-0.236 0.264,-0.241C0.248,-0.245 0.232,-0.251 0.215,-0.256C0.199,-0.261 0.182,-0.266 0.165,-0.273C0.147,-0.28 0.131,-0.289 0.116,-0.301C0.101,-0.313 0.089,-0.328 0.08,-0.347C0.07,-0.365 0.065,-0.388 0.065,-0.417C0.065,-0.46 0.076,-0.496 0.098,-0.525C0.119,-0.554 0.147,-0.577 0.18,-0.595C0.213,-0.613 0.249,-0.626 0.288,-0.634C0.327,-0.641 0.365,-0.645 0.4,-0.645C0.447,-0.645 0.487,-0.64 0.521,-0.629C0.554,-0.618 0.58,-0.605 0.597,-0.59L0.56,-0.451L0.394,-0.451Z" style="fill-rule:nonzero;"/>
                </g>
                <g transform="matrix(421.08,0,0,421.08,900.376,282.966)">
                    <path d="M0.267,-0.227C0.264,-0.212 0.261,-0.2 0.259,-0.189C0.257,-0.178 0.256,-0.168 0.256,-0.159C0.256,-0.136 0.264,-0.117 0.281,-0.103C0.297,-0.089 0.321,-0.082 0.353,-0.082C0.376,-0.082 0.396,-0.086 0.411,-0.094C0.426,-0.102 0.438,-0.113 0.448,-0.126C0.457,-0.139 0.465,-0.155 0.471,-0.172C0.476,-0.189 0.481,-0.208 0.485,-0.227L0.57,-0.635L0.661,-0.635L0.574,-0.225C0.567,-0.193 0.558,-0.163 0.545,-0.135C0.532,-0.107 0.514,-0.082 0.491,-0.061C0.467,-0.04 0.436,-0.023 0.399,-0.011C0.362,0.002 0.315,0.008 0.26,0.008C0.183,0.008 0.127,-0.005 0.09,-0.03C0.053,-0.055 0.035,-0.093 0.035,-0.145C0.035,-0.168 0.038,-0.198 0.044,-0.234C0.05,-0.27 0.058,-0.309 0.067,-0.351L0.128,-0.635L0.355,-0.635L0.267,-0.227Z" style="fill-rule:nonzero;"/>
                </g>
                <g transform="matrix(421.08,0,0,421.08,1165.66,282.966)">
                    <path d="M0.734,-0L0.512,-0L0.604,-0.432L0.367,-0L0.231,-0L0.186,-0.447L0.09,-0L0,-0L0.135,-0.635L0.39,-0.635L0.421,-0.277L0.613,-0.635L0.87,-0.635L0.734,-0Z" style="fill-rule:nonzero;"/>
                </g>
                <g transform="matrix(421.08,0,0,421.08,1521.05,282.966)">
                    <path d="M0.135,-0.635L0.556,-0.635L0.54,-0.559L0.336,-0.559L0.294,-0.366L0.465,-0.366L0.449,-0.291L0.278,-0.291L0.232,-0.077L0.436,-0.077L0.421,-0L0,-0L0.135,-0.635Z" style="fill-rule:nonzero;"/>
                </g>
            </g>
        </g>
    </g>
</svg>
